HIERARCHY
ROOT Hips
{
    OFFSET 0.000000 0.000000 0.000000
    CHANNELS 6 Xposition Yposition Zposition Zrotation Xrotation Yrotation
    JOINT Spine
    {
        OFFSET -0.000000 14.517291 0.000000
        CHANNELS 3 Zrotation Xrotation Yrotation
        JOINT Spine1
        {
            OFFSET -0.000000 37.558300 0.000000
            CHANNELS 3 Zrotation Xrotation Yrotation
            JOINT Neck
            {
                OFFSET -0.000000 37.404057 3.400369
                CHANNELS 3 Zrotation Xrotation Yrotation
                JOINT Head
                {
                    OFFSET -0.000000 24.785618 -3.540803
                    CHANNELS 3 Zrotation Xrotation Yrotation
                    End Site
                    {
                        OFFSET -0.000000 35.408028 0.000000
                    }
                }
            }
            JOINT LeftShoulder
            {
                OFFSET 6.992933 33.973492 -0.192664
                CHANNELS 3 Zrotation Xrotation Yrotation
                JOINT LeftArm
                {
                    OFFSET 21.527611 0.000000 0.000000
                    CHANNELS 3 Zrotation Xrotation Yrotation
                    JOINT LeftForeArm
                    {
                        OFFSET 56.353916 0.000000 0.000000
                        CHANNELS 3 Zrotation Xrotation Yrotation
                        JOINT LeftHand
                        {
                            OFFSET 47.774071 0.000000 0.000000
                            CHANNELS 3 Zrotation Xrotation Yrotation
                            End Site
                            {
                                OFFSET 26.556021 0.000000 0.000000
                            }
                        }
                    }
                }
            }
            JOINT RightShoulder
            {
                OFFSET -7.065357 33.973492 -0.192664
                CHANNELS 3 Zrotation Xrotation Yrotation
                JOINT RightArm
                {
                    OFFSET -21.527611 0.000000 0.000000
                    CHANNELS 3 Zrotation Xrotation Yrotation
                    JOINT RightForeArm
                    {
                        OFFSET -56.353916 0.000000 0.000000
                        CHANNELS 3 Zrotation Xrotation Yrotation
                        JOINT RightHand
                        {
                            OFFSET -47.774071 0.000000 0.000000
                            CHANNELS 3 Zrotation Xrotation Yrotation
                            End Site
                            {
                                OFFSET -26.556021 0.000000 0.000000
                            }
                        }
                    }
                }
            }
        }
    }
    JOINT LeftUpLeg
    {
        OFFSET 17.704014 0.000000 0.000000
        CHANNELS 3 Zrotation Xrotation Yrotation
        JOINT LeftLeg
        {
            OFFSET -0.000000 -81.181816 0.000000
            CHANNELS 3 Zrotation Xrotation Yrotation
            JOINT LeftFoot
            {
                OFFSET -0.000000 -62.821102 0.000000
                CHANNELS 3 Zrotation Xrotation Yrotation
                JOINT LeftToeBase
                {
                    OFFSET -0.000000 -11.507608 26.556021
                    CHANNELS 3 Zrotation Xrotation Yrotation
                    End Site
                    {
                        OFFSET -0.000000 0.000000 7.081605
                    }
                }
            }
        }
    }
    JOINT RightUpLeg
    {
        OFFSET -17.704014 0.000000 0.000000
        CHANNELS 3 Zrotation Xrotation Yrotation
        JOINT RightLeg
        {
            OFFSET -0.000000 -81.181816 0.000000
            CHANNELS 3 Zrotation Xrotation Yrotation
            JOINT RightFoot
            {
                OFFSET -0.000000 -62.821102 0.000000
                CHANNELS 3 Zrotation Xrotation Yrotation
                JOINT RightToeBase
                {
                    OFFSET -0.000000 -11.507608 26.556021
                    CHANNELS 3 Zrotation Xrotation Yrotation
                    End Site
                    {
                        OFFSET -0.000000 0.000000 7.081605
                    }
                }
            }
        }
    }
}
MOTION
Frames:    8
Frame Time:    0.008333
35.233421    160.374039    -100.126602    -1.086756    -0.467523    26.085972    -1.251010    -2.265920    -5.286900    -6.777176    -1.470952    -1.838937    11.279941    -6.959177    1.058554    7.132963    11.067340    -0.944095    18.059996    -7.754076    -18.804180    -30.748978    -10.189858    -69.051895    15.779488    -56.848434    -83.913353    -19.038647    -44.398800    -31.520388    -7.597564    0.864652    -7.868718    20.934635    20.777838    14.079877    16.368492    15.044584    5.590273    3.040539    14.884521    23.731928    8.476285    3.062433    -0.511100    -9.236251    19.704288    -17.170485    4.930351    -21.025015    44.215733    0.000000    0.000000    0.000000    -15.217481    -26.066292    -8.905169    11.906549    27.699892    -14.210511    4.059388    12.349887    -12.150384    0.000000    0.000000    0.000000    
35.235874    160.363693    -100.133408    -1.070382    -0.452867    26.066555    -1.227485    -2.288767    -5.258533    -6.797230    -1.433376    -1.827609    11.181130    -6.927672    0.963962    7.213620    10.988808    -1.009752    17.892809    -7.405431    -18.694662    -30.592684    -9.522162    -68.551483    14.791133    -56.462620    -84.988091    -18.616491    -44.538551    -30.870729    -7.638235    0.859743    -7.859161    20.884632    20.686794    14.096264    16.411095    15.060020    5.521174    2.997896    14.898883    23.731434    8.452955    3.052132    -0.492741    -9.239864    19.723770    -17.162817    4.933448    -21.033495    44.216480    0.000000    0.000000    0.000000    -15.233498    -26.084555    -8.921809    11.890712    27.717607    -14.180970    4.065439    12.322647    -12.144073    0.000000    0.000000    0.000000    
35.238075    160.356323    -100.137306    -1.054244    -0.440755    26.044907    -1.217405    -2.318046    -5.226647    -6.790282    -1.373055    -1.813317    11.083722    -6.907619    0.884843    7.267875    10.886640    -1.060344    17.700985    -7.049905    -18.571234    -30.504246    -8.875014    -68.024368    13.652374    -55.963467    -86.265732    -18.129910    -44.639370    -30.198532    -7.692285    0.886451    -7.905085    20.815052    20.601725    14.192510    16.455181    15.065174    5.454795    2.960736    14.904699    23.769812    8.428941    3.049010    -0.486569    -9.237140    19.731056    -17.159494    4.934521    -21.041063    44.222675    0.000000    0.000000    0.000000    -15.243415    -26.099051    -8.926844    11.881492    27.722044    -14.178431    4.036217    12.318671    -12.125721    0.000000    0.000000    0.000000    
35.237198    160.349960    -100.144669    -1.042710    -0.422479    26.017864    -1.186816    -2.333910    -5.196943    -6.819700    -1.358431    -1.803064    10.991518    -6.859313    0.774862    7.342312    10.811492    -1.142217    17.515739    -6.693713    -18.440899    -30.334526    -8.207067    -67.464516    12.755804    -55.467896    -87.322281    -17.712786    -44.625469    -29.543272    -7.731496    0.902545    -7.899445    20.771847    20.515768    14.223684    16.497116    15.114447    5.395366    2.983969    14.965223    23.774130    8.408127    3.042391    -0.477919    -9.243636    19.730022    -17.171682    4.953028    -21.040068    44.258541    0.000000    0.000000    0.000000    -15.249429    -26.124155    -8.933652    11.864002    27.728184    -14.175527    4.022584    12.309551    -12.097858    0.000000    0.000000    0.000000    
35.240704    160.344666    -100.148621    -1.033022    -0.406968    25.993982    -1.167321    -2.370896    -5.158773    -6.825893    -1.278795    -1.785742    10.905909    -6.875535    0.666435    7.383921    10.756066    -1.233011    17.343527    -6.410789    -18.282631    -30.340164    -7.578396    -66.912849    11.724471    -54.795078    -88.509087    -17.385529    -44.468063    -28.939091    -7.792299    0.876137    -7.956807    20.700356    20.487637    14.298309    16.548096    15.157992    5.345440    2.993511    15.016175    23.803581    8.389781    3.039523    -0.467135    -9.249162    19.730280    -17.170490    4.970066    -21.032475    44.267307    0.000000    0.000000    0.000000    -15.257944    -26.144373    -8.935452    11.855103    27.737204    -14.142906    4.009711    12.301491    -12.099937    0.000000    0.000000    0.000000    
35.237259    160.342712    -100.153473    -1.031529    -0.394268    25.959669    -1.128015    -2.391248    -5.120754    -6.869502    -1.253149    -1.772234    10.894216    -6.845233    0.578614    7.364020    10.690641    -1.315832    17.174236    -6.114157    -18.135912    -30.393097    -6.970261    -66.337219    10.685357    -54.028332    -89.691582    -17.089264    -44.213917    -28.490797    -7.811883    0.894890    -7.957896    20.653637    20.437605    14.324580    16.564545    15.214167    5.319833    2.955703    15.068208    23.829836    8.380118    3.034975    -0.433516    -9.247373    19.730417    -17.167866    4.959324    -21.043188    44.268898    0.000000    0.000000    0.000000    -15.249260    -26.170742    -8.919003    11.843248    27.740385    -14.140546    4.012942    12.304090    -12.083715    0.000000    0.000000    0.000000    
35.234142    160.339600    -100.154770    -1.032013    -0.379611    25.923901    -1.091136    -2.421510    -5.078496    -6.898094    -1.222107    -1.756773    10.833187    -6.763661    0.462379    7.390547    10.557273    -1.406139    16.964628    -5.824774    -17.969585    -30.425343    -6.376806    -65.751808    9.708832    -53.215015    -90.821167    -16.780861    -43.915806    -27.958790    -7.855444    0.933266    -7.956551    20.628748    20.495890    14.340654    16.491983    15.174611    5.364439    2.996104    15.033674    23.820110    8.373415    3.031185    -0.407158    -9.250636    19.728773    -17.149637    4.948885    -21.052349    44.259888    0.000000    0.000000    0.000000    -15.237067    -26.197758    -8.911002    11.825541    27.746540    -14.118419    4.015772    12.302893    -12.075090    0.000000    0.000000    0.000000    
35.231541    160.339096    -100.156166    -1.030759    -0.368052    25.890333    -1.040376    -2.453718    -5.029902    -6.951447    -1.182289    -1.739034    10.750533    -6.725604    0.341628    7.456203    10.481143    -1.502575    16.750769    -5.574520    -17.813650    -30.393003    -5.775239    -65.166000    8.962693    -52.440292    -91.738983    -16.204449    -43.614265    -27.305246    -7.891744    0.980957    -7.967340    20.615679    20.523113    14.361181    16.439440    15.134310    5.405736    2.990248    14.988210    23.797518    8.362923    3.024894    -0.384205    -9.249308    19.735527    -17.146595    4.958939    -21.046089    44.267689    0.000000    0.000000    0.000000    -15.228463    -26.215242    -8.864999    11.833399    27.735203    -14.125636    4.008076    12.298837    -12.072561    0.000000    0.000000    0.000000    
